# xmcd
#
# Track frame offsets:
#	150
#	18973
#	32583
#	45143
#	62512
#	75953
#	92088
#	113976
#	128780
#	140203
#	158285
#	170396
#	182992
#
# Disc length: 2700 seconds
#
# Revision: 1
# Processed by: cddbd v1.5.2PL0 Copyright (c) Steve Scherf et al.
# Submitted via: EasyCDDAExtractor 12.0.0.1
#
DISCID=950a8a0d
DTITLE=Milionário E José Rico - Milionário and José Rico - Edição Especial De Na
DTITLE=tal
DYEAR=1900
DGENRE=Moda
TTITLE0=Levando A Vida
TTITLE1=Vá Pro Inferno Com Seu Amor
TTITLE2=De Longe Também Se Ama
TTITLE3=Tribunal Do Amor
TTITLE4=Dê Amor Pra Quem Te Ama
TTITLE5=Viva A Vida
TTITLE6=Lembrança
TTITLE7=Amor Dividido
TTITLE8=O Tropeiro
TTITLE9=Explosão De Amor
TTITLE10=Coração De Pedra
TTITLE11=Do Mundo Nada Se Leva
TTITLE12=Sonhei Com Você
EXTD=
EXTT0=
EXTT1=
EXTT2=
EXTT3=
EXTT4=
EXTT5=
EXTT6=
EXTT7=
EXTT8=
EXTT9=
EXTT10=
EXTT11=
EXTT12=
PLAYORDER=
